<?xml version="1.0" standalone="no"?>
<!DOCTYPE svg PUBLIC "-//W3C//DTD SVG 20010904//EN"
 "http://www.w3.org/TR/2001/REC-SVG-20010904/DTD/svg10.dtd">
<svg version="1.0" xmlns="http://www.w3.org/2000/svg"
 width="700.000000pt" height="700.000000pt" viewBox="0 0 700.000000 700.000000"
 preserveAspectRatio="xMidYMid meet">
<metadata>
Created by potrace 1.14, written by Peter Selinger 2001-2017
</metadata>
<g transform="translate(0.000000,700.000000) scale(0.100000,-0.100000)"
fill="#000000" stroke="none">
<path d="M1935 6858 c-211 -50 -356 -195 -433 -433 -4 -11 -8 -1320 -9 -2910
-2 -2393 0 -2899 11 -2945 55 -224 212 -384 432 -440 325 -83 672 151 711 480
6 54 7 55 24 38 27 -26 143 -100 223 -143 147 -80 378 -162 501 -180 22 -3 46
-8 53 -10 55 -19 357 -26 487 -11 385 43 772 228 1035 496 105 106 150 157
150 170 0 5 4 10 9 10 7 0 87 115 128 184 14 23 100 199 113 231 37 88 90 275
104 365 30 192 28 449 -4 610 -6 30 -13 69 -16 85 -3 17 -24 86 -46 155 -144
439 -461 807 -876 1019 -177 90 -335 139 -582 180 -59 10 -408 8 -450 -3 -14
-3 -45 -9 -70 -12 -219 -28 -548 -168 -741 -315 l-35 -28 -1 1442 c0 793 -3
1464 -7 1490 -29 216 -200 409 -420 472 -83 24 -196 25 -291 3z m1948 -4064
c360 -75 610 -390 602 -755 -4 -185 -68 -345 -199 -497 -29 -34 -132 -113
-187 -145 -51 -29 -134 -61 -189 -73 -19 -4 -42 -9 -50 -11 -38 -9 -181 -10
-235 -2 -77 11 -173 41 -238 76 -29 15 -54 30 -57 33 -3 3 -25 18 -49 35 -120
81 -238 260 -282 430 -14 53 -18 257 -6 315 72 355 377 606 738 608 48 0 116
-6 152 -14z"/>
</g>
</svg>
